<?xml version="1.0" standalone="no"?>
<!DOCTYPE svg PUBLIC "-//W3C//DTD SVG 20010904//EN"
 "http://www.w3.org/TR/2001/REC-SVG-20010904/DTD/svg10.dtd">
<svg version="1.0" xmlns="http://www.w3.org/2000/svg"
 width="594.000000pt" height="594.000000pt" viewBox="0 0 594.000000 594.000000"
 preserveAspectRatio="xMidYMid meet">
<metadata>
Created by potrace 1.14, written by Peter Selinger 2001-2017
</metadata>
<g transform="translate(0.000000,594.000000) scale(0.100000,-0.100000)"
fill="#000000" stroke="none">
<path d="M2710 5929 c-130 -14 -175 -20 -190 -24 -8 -2 -35 -7 -60 -10 -25 -4
-65 -11 -90 -17 -25 -5 -56 -12 -70 -14 -73 -15 -290 -82 -404 -126 -821 -318
-1465 -994 -1743 -1828 -19 -58 -36 -113 -38 -124 -3 -10 -11 -42 -19 -70 -34
-119 -69 -319 -84 -476 -9 -95 -8 -476 1 -555 17 -144 30 -223 48 -309 11 -50
22 -102 25 -116 13 -68 81 -277 129 -396 108 -268 242 -500 428 -739 60 -77
147 -174 241 -268 481 -477 1126 -778 1811 -844 95 -10 450 -10 553 -1 474 43
983 225 1382 496 90 61 169 119 180 132 3 4 15 13 27 21 66 45 285 256 368
353 22 26 45 53 50 59 112 127 353 500 380 589 4 12 11 28 16 33 10 13 73 161
101 235 49 134 85 254 103 343 2 10 7 27 10 37 16 50 53 279 62 385 15 174 9
528 -13 665 -69 449 -184 777 -402 1145 -169 286 -446 600 -702 796 -25 18
-47 36 -50 39 -33 36 -298 202 -435 272 -328 168 -633 259 -1050 314 -61 8
-502 11 -565 3z"/>
</g>
</svg>
